<svg width="125" height="125" viewBox="0 0 125 125" fill="none" xmlns="http://www.w3.org/2000/svg">
<path d="M76.2822 79.9861H59.6695L59.5777 79.8943C54.5056 75.5206 48.0003 73.1132 41.2376 73.1132C33.795 73.1132 26.7015 75.98 21.2987 81.1806L0 101.634L24.3493 124.899L32.527 116.188C34.9711 113.579 38.3892 112.109 41.9727 112.109H83.0265C85.3787 112.109 87.6391 111.208 89.3481 109.591L124.246 76.7334C124.742 76.2556 125.018 75.5941 124.999 74.8958C124.962 74.1974 124.632 73.5359 124.08 73.0948C121.03 70.6691 118.034 69.493 114.91 69.493C111.786 69.493 108.239 70.8161 104.748 73.444C101.844 75.6125 99.0511 77.542 96.3313 79.3981C93.685 81.2174 90.9653 83.0734 88.2271 85.1317C89.1827 87.1164 89.7524 89.487 89.9545 92.17C90.028 93.1807 89.6789 94.1914 88.9806 94.9265C88.2822 95.68 87.2899 96.1026 86.2792 96.1026L54.0095 96.0659C53.4949 96.0659 52.9988 95.8453 52.6496 95.4778C52.3188 95.1286 52.135 94.6692 52.135 94.1914C52.135 93.1623 52.9804 92.3354 53.9911 92.3354L85.3971 92.3721C85.8565 92.3721 86.224 91.9678 86.1689 91.5084C85.1398 82.614 79.2592 80.1883 76.9989 80.0045C76.9254 80.0045 76.8886 80.0045 76.8519 80.0045H76.5762H76.466H76.2638L76.2822 79.9861Z" fill="#1670C0"/>
<path d="M71.6882 67.6921C71.1001 68.2618 70.1813 68.2618 69.5932 67.6921C64.025 62.2525 38.0586 36.5434 34.5486 27.4285C30.5976 17.1926 35.3756 5.56005 45.2072 1.44364C56.1046 -3.09544 67.9761 3.66723 70.6223 14.1053C73.2686 3.66723 85.1584 -3.11381 96.0558 1.44364C105.887 5.56005 110.665 17.1926 106.714 27.4285C103.204 36.5434 77.238 62.2342 71.6698 67.6921H71.6882Z" fill="#D6DF75"/>
</svg>
