<svg width="48" height="44" viewBox="0 0 48 44" fill="none" xmlns="http://www.w3.org/2000/svg">
<g clip-path="url(#clip0_206_1127)">
<path d="M34.6054 1.1987C31.7533 -0.748182 27.8454 -0.148831 25.3978 2.28276L23.9799 3.69063L22.3475 2.06555C19.2588 -1.00361 14.0299 -0.655665 11.4287 3.11743C9.47267 5.95329 10.0754 9.83499 12.521 12.2666L22.8937 22.5782C23.4944 23.1756 24.4694 23.1756 25.0701 22.5782L35.6593 12.0494C38.746 8.98021 38.396 3.78315 34.6074 1.19669L34.6054 1.1987Z" fill="#D6DF75"/>
<path d="M18.7612 28.2902L11.1515 20.5449C10.8077 20.1949 10.3445 19.9998 9.8408 19.9918C9.34725 19.9878 8.87999 20.1788 8.52803 20.5288C7.93738 21.1201 7.81804 22.0312 8.24282 22.7532L8.46937 23.1394C9.6628 25.1667 11.0302 27.0895 12.5553 28.8835L13.9672 30.5448C14.1796 30.7942 14.2807 31.114 14.2545 31.4398C14.2261 31.7656 14.0744 32.0592 13.8216 32.2744C13.5708 32.4856 13.2491 32.5862 12.9215 32.56C12.5938 32.5339 12.2964 32.379 12.084 32.1276L10.745 30.5528C9.06608 28.5818 7.56722 26.468 6.2585 24.2375L6.1169 23.9942C5.14598 22.3369 5.37253 20.219 6.72575 18.8534C6.84914 18.7287 6.97658 18.608 7.10805 18.5035L4.12449 12.1298C3.78062 11.3957 3.01602 10.9009 2.20287 10.8889C1.58795 10.8768 1.01349 11.1141 0.588712 11.5626C0.167978 12.0071 -0.0403656 12.5904 0.0061578 13.2018L1.29668 30.048C1.41602 31.6168 2.13814 33.081 3.31134 34.1369L9.44029 39.6517C9.8145 39.9876 10.0431 40.4562 10.0775 40.957L10.2271 43.0527C10.2656 43.5877 10.7126 44.004 11.2547 44.004H20.1467C20.7475 44.004 21.2208 43.4952 21.1723 42.8999L20.262 31.4358C20.1265 30.2572 19.5945 29.1389 18.7612 28.2942V28.2902Z" fill="#1670C0"/>
<path d="M47.4092 11.5626C46.9845 11.1161 46.41 10.8768 45.7951 10.8889C44.984 10.9009 44.2194 11.3957 43.8735 12.1298L40.8899 18.5035C41.0214 18.608 41.1488 18.7287 41.2722 18.8534C42.6274 20.219 42.854 22.3369 41.8811 23.9941L41.7395 24.2375C40.4328 26.468 38.9319 28.5818 37.253 30.5528L35.9139 32.1276C35.7015 32.379 35.4042 32.5319 35.0765 32.56C34.7488 32.5862 34.4272 32.4856 34.1764 32.2744C33.9235 32.0592 33.7718 31.7656 33.7435 31.4398C33.7152 31.1119 33.8163 30.7942 34.0307 30.5448L35.4426 28.8835C36.9678 27.0895 38.3352 25.1667 39.5286 23.1394L39.7551 22.7532C40.1799 22.0312 40.0626 21.1201 39.4699 20.5288C39.12 20.1808 38.6527 19.9877 38.1572 19.9918C37.6535 19.9998 37.1903 20.1949 36.8464 20.5449L29.2368 28.2902C28.4034 29.1369 27.8714 30.2552 27.7359 31.4317L26.8257 42.8958C26.7792 43.4912 27.2505 44 27.8512 44H36.7433C37.2833 44 37.7324 43.5837 37.7708 43.0487L37.9205 40.953C37.9569 40.4522 38.1855 39.9856 38.5597 39.6477L44.6886 34.1328C45.8618 33.0769 46.584 31.6127 46.7033 30.044L47.9938 13.1978C48.0403 12.5864 47.832 12.0031 47.4092 11.5586V11.5626Z" fill="#1670C0"/>
</g>
<defs>
<clipPath id="clip0_206_1127">
<rect width="48" height="44" fill="white"/>
</clipPath>
</defs>
</svg>
